<?xml version="1.0" encoding="utf-8"?>
<!-- Generator: Adobe Illustrator 27.8.1, SVG Export Plug-In . SVG Version: 6.00 Build 0)  -->
<svg version="1.1" id="Layer_1" xmlns="http://www.w3.org/2000/svg" xmlns:xlink="http://www.w3.org/1999/xlink" x="0px" y="0px"
	 viewBox="0 0 48 48" style="enable-background:new 0 0 48 48;" xml:space="preserve">
<style type="text/css">
	.st0{fill:#FFEBCF;}
</style>
<path class="st0" d="M38.7,39.5l-12.1-12l0.9-0.9l12,12.1L38.7,39.5z M11.8,36.4c-1.1-1.5-1.9-3.2-2.4-4.9s-0.8-3.6-0.8-5.4
	c0-2.3,0.4-4.5,1.3-6.6c0.8-2.1,2.1-4.1,3.9-5.8c1.7-1.7,3.7-3,5.8-3.9s4.3-1.3,6.6-1.3c1.8,0,3.6,0.3,5.4,0.8
	c1.8,0.5,3.4,1.3,5,2.4L11.8,36.4z M11.9,34.7l4.1-4.2c-0.6-0.8-1.1-1.6-1.6-2.5s-1-1.9-1.4-3c-0.4-1.1-0.7-2.2-0.9-3.4
	s-0.3-2.5-0.2-3.9c-1.6,2.7-2.4,5.6-2.2,8.6C9.7,29.3,10.4,32.1,11.9,34.7z M17,29.8l12.8-12.9c-1.4-1.2-2.9-2-4.5-2.6s-3-1-4.5-1.2
	c-1.4-0.2-2.7-0.1-3.8,0.1s-2,0.6-2.6,1.2c-0.6,0.6-1.1,1.5-1.3,2.6c-0.2,1.1-0.3,2.4-0.1,3.8c0.2,1.4,0.6,2.9,1.2,4.4
	C14.9,26.7,15.8,28.2,17,29.8z M30.6,16l4.1-4.1c-2.7-1.6-5.5-2.4-8.5-2.5c-3-0.1-5.9,0.7-8.6,2.3c1.4-0.1,2.7,0,3.9,0.2
	c1.2,0.2,2.3,0.6,3.4,1s2.1,1,3,1.5C28.9,15,29.8,15.5,30.6,16z"/>
</svg>
