<?xml version="1.0" encoding="utf-8"?>
<!-- Generator: Adobe Illustrator 27.8.1, SVG Export Plug-In . SVG Version: 6.00 Build 0)  -->
<svg version="1.1" id="Layer_1" xmlns="http://www.w3.org/2000/svg" xmlns:xlink="http://www.w3.org/1999/xlink" x="0px" y="0px"
	 viewBox="0 0 48 48" style="enable-background:new 0 0 48 48;" xml:space="preserve">
<style type="text/css">
	.st0{fill:#94CDFF;}
</style>
<path class="st0" d="M28,33.5c0.4,0,0.8-0.1,1.1-0.4c0.3-0.3,0.5-0.7,0.5-1.1c0-0.4-0.2-0.8-0.5-1.1c-0.3-0.3-0.7-0.5-1.1-0.5
	c-0.4,0-0.8,0.2-1.1,0.5c-0.3,0.3-0.4,0.7-0.4,1.1c0,0.4,0.1,0.8,0.4,1.1C27.2,33.4,27.6,33.5,28,33.5z M18.5,33.5
	c0.1,0.1,0.2,0.1,0.4,0.1c0.2,0,0.3,0,0.4-0.1l10.1-10.2c0.1-0.1,0.1-0.2,0.1-0.4c0-0.2,0-0.3-0.1-0.4c-0.1-0.1-0.2-0.1-0.4-0.1
	c-0.2,0-0.3,0-0.4,0.1L18.5,32.7c-0.1,0.1-0.2,0.2-0.2,0.4C18.4,33.2,18.4,33.4,18.5,33.5z M20,25.5c0.4,0,0.8-0.1,1.1-0.4
	c0.3-0.3,0.5-0.7,0.5-1.1c0-0.4-0.2-0.8-0.5-1.1c-0.3-0.3-0.7-0.5-1.1-0.5c-0.4,0-0.8,0.2-1.1,0.5c-0.3,0.3-0.4,0.7-0.4,1.1
	c0,0.4,0.1,0.8,0.4,1.1C19.2,25.4,19.6,25.5,20,25.5z M24,41.4c-3.8,0-7-1.3-9.6-4c-2.6-2.6-3.8-5.9-3.8-9.8c0-1.7,0.4-3.5,1.2-5.3
	c0.8-1.8,1.8-3.5,3-5.2c1.2-1.6,2.5-3.2,3.9-4.6c1.4-1.4,2.7-2.7,3.9-3.8c0.2-0.2,0.4-0.3,0.6-0.4c0.2-0.1,0.5-0.2,0.8-0.2
	c0.3,0,0.5,0.1,0.8,0.2c0.2,0.1,0.4,0.3,0.6,0.4c1.1,1.1,2.4,2.4,3.8,3.8c1.4,1.5,2.7,3,3.9,4.6c1.2,1.6,2.2,3.4,3,5.1
	c0.8,1.8,1.2,3.5,1.2,5.3c0,3.9-1.3,7.2-3.8,9.8C31,40.1,27.8,41.4,24,41.4z M24,40.3c3.5,0,6.5-1.2,8.8-3.6
	c2.3-2.4,3.5-5.4,3.5-9.1c0-2.5-1-5.3-3.1-8.5S28,12.6,24,8.9c-4,3.7-7.1,7.1-9.2,10.2s-3.1,6-3.1,8.5c0,3.6,1.2,6.7,3.5,9.1
	C17.5,39.1,20.5,40.3,24,40.3z"/>
</svg>
